%TF.GenerationSoftware,KiCad,Pcbnew,8.0.7-8.0.7-0~ubuntu24.04.1*%
%TF.CreationDate,2024-12-31T17:41:06-07:00*%
%TF.ProjectId,MA735 encoder board,4d413733-3520-4656-9e63-6f6465722062,rev?*%
%TF.SameCoordinates,Original*%
%TF.FileFunction,Drillmap*%
%TF.FilePolarity,Positive*%
%FSLAX45Y45*%
G04 Gerber Fmt 4.5, Leading zero omitted, Abs format (unit mm)*
G04 Created by KiCad (PCBNEW 8.0.7-8.0.7-0~ubuntu24.04.1) date 2024-12-31 17:41:06*
%MOMM*%
%LPD*%
G01*
G04 APERTURE LIST*
%ADD10C,0.050000*%
%ADD11C,0.200000*%
G04 APERTURE END LIST*
D10*
X15400000Y-12910000D02*
G75*
G02*
X15160000Y-12910000I-120000J-258707D01*
G01*
X15400000Y-2910000D02*
X15160000Y-2910000D01*
X15400000Y-2910000D02*
X15400000Y-12910000D01*
X15160000Y-2910000D02*
X15160000Y-12910000D01*
D11*
X15253094Y-13767874D02*
X15253094Y-13567874D01*
X15253094Y-13567874D02*
X15300713Y-13567874D01*
X15300713Y-13567874D02*
X15329284Y-13577398D01*
X15329284Y-13577398D02*
X15348332Y-13596445D01*
X15348332Y-13596445D02*
X15357856Y-13615493D01*
X15357856Y-13615493D02*
X15367379Y-13653588D01*
X15367379Y-13653588D02*
X15367379Y-13682160D01*
X15367379Y-13682160D02*
X15357856Y-13720255D01*
X15357856Y-13720255D02*
X15348332Y-13739302D01*
X15348332Y-13739302D02*
X15329284Y-13758350D01*
X15329284Y-13758350D02*
X15300713Y-13767874D01*
X15300713Y-13767874D02*
X15253094Y-13767874D01*
X15453094Y-13767874D02*
X15453094Y-13634540D01*
X15453094Y-13672636D02*
X15462618Y-13653588D01*
X15462618Y-13653588D02*
X15472141Y-13644064D01*
X15472141Y-13644064D02*
X15491189Y-13634540D01*
X15491189Y-13634540D02*
X15510237Y-13634540D01*
X15576903Y-13767874D02*
X15576903Y-13634540D01*
X15576903Y-13567874D02*
X15567379Y-13577398D01*
X15567379Y-13577398D02*
X15576903Y-13586921D01*
X15576903Y-13586921D02*
X15586427Y-13577398D01*
X15586427Y-13577398D02*
X15576903Y-13567874D01*
X15576903Y-13567874D02*
X15576903Y-13586921D01*
X15700713Y-13767874D02*
X15681665Y-13758350D01*
X15681665Y-13758350D02*
X15672141Y-13739302D01*
X15672141Y-13739302D02*
X15672141Y-13567874D01*
X15805475Y-13767874D02*
X15786427Y-13758350D01*
X15786427Y-13758350D02*
X15776903Y-13739302D01*
X15776903Y-13739302D02*
X15776903Y-13567874D01*
X16034046Y-13767874D02*
X16034046Y-13567874D01*
X16034046Y-13567874D02*
X16100713Y-13710731D01*
X16100713Y-13710731D02*
X16167379Y-13567874D01*
X16167379Y-13567874D02*
X16167379Y-13767874D01*
X16348332Y-13767874D02*
X16348332Y-13663112D01*
X16348332Y-13663112D02*
X16338808Y-13644064D01*
X16338808Y-13644064D02*
X16319760Y-13634540D01*
X16319760Y-13634540D02*
X16281665Y-13634540D01*
X16281665Y-13634540D02*
X16262618Y-13644064D01*
X16348332Y-13758350D02*
X16329284Y-13767874D01*
X16329284Y-13767874D02*
X16281665Y-13767874D01*
X16281665Y-13767874D02*
X16262618Y-13758350D01*
X16262618Y-13758350D02*
X16253094Y-13739302D01*
X16253094Y-13739302D02*
X16253094Y-13720255D01*
X16253094Y-13720255D02*
X16262618Y-13701207D01*
X16262618Y-13701207D02*
X16281665Y-13691683D01*
X16281665Y-13691683D02*
X16329284Y-13691683D01*
X16329284Y-13691683D02*
X16348332Y-13682160D01*
X16443570Y-13634540D02*
X16443570Y-13834540D01*
X16443570Y-13644064D02*
X16462618Y-13634540D01*
X16462618Y-13634540D02*
X16500713Y-13634540D01*
X16500713Y-13634540D02*
X16519760Y-13644064D01*
X16519760Y-13644064D02*
X16529284Y-13653588D01*
X16529284Y-13653588D02*
X16538808Y-13672636D01*
X16538808Y-13672636D02*
X16538808Y-13729779D01*
X16538808Y-13729779D02*
X16529284Y-13748826D01*
X16529284Y-13748826D02*
X16519760Y-13758350D01*
X16519760Y-13758350D02*
X16500713Y-13767874D01*
X16500713Y-13767874D02*
X16462618Y-13767874D01*
X16462618Y-13767874D02*
X16443570Y-13758350D01*
X16624522Y-13748826D02*
X16634046Y-13758350D01*
X16634046Y-13758350D02*
X16624522Y-13767874D01*
X16624522Y-13767874D02*
X16614999Y-13758350D01*
X16614999Y-13758350D02*
X16624522Y-13748826D01*
X16624522Y-13748826D02*
X16624522Y-13767874D01*
X16624522Y-13644064D02*
X16634046Y-13653588D01*
X16634046Y-13653588D02*
X16624522Y-13663112D01*
X16624522Y-13663112D02*
X16614999Y-13653588D01*
X16614999Y-13653588D02*
X16624522Y-13644064D01*
X16624522Y-13644064D02*
X16624522Y-13663112D01*
M02*
