G04 #@! TF.GenerationSoftware,KiCad,Pcbnew,8.0.7-8.0.7-0~ubuntu24.04.1*
G04 #@! TF.CreationDate,2024-12-31T17:41:06-07:00*
G04 #@! TF.ProjectId,MA735 encoder board,4d413733-3520-4656-9e63-6f6465722062,rev?*
G04 #@! TF.SameCoordinates,Original*
G04 #@! TF.FileFunction,Legend,Bot*
G04 #@! TF.FilePolarity,Positive*
%FSLAX46Y46*%
G04 Gerber Fmt 4.6, Leading zero omitted, Abs format (unit mm)*
G04 Created by KiCad (PCBNEW 8.0.7-8.0.7-0~ubuntu24.04.1) date 2024-12-31 17:41:06*
%MOMM*%
%LPD*%
G01*
G04 APERTURE LIST*
%ADD10C,0.150000*%
G04 APERTURE END LIST*
D10*
X152138095Y-131445180D02*
X152138095Y-130635657D01*
X152138095Y-130635657D02*
X152185714Y-130540419D01*
X152185714Y-130540419D02*
X152233333Y-130492800D01*
X152233333Y-130492800D02*
X152328571Y-130445180D01*
X152328571Y-130445180D02*
X152519047Y-130445180D01*
X152519047Y-130445180D02*
X152614285Y-130492800D01*
X152614285Y-130492800D02*
X152661904Y-130540419D01*
X152661904Y-130540419D02*
X152709523Y-130635657D01*
X152709523Y-130635657D02*
X152709523Y-131445180D01*
X153709523Y-130445180D02*
X153138095Y-130445180D01*
X153423809Y-130445180D02*
X153423809Y-131445180D01*
X153423809Y-131445180D02*
X153328571Y-131302323D01*
X153328571Y-131302323D02*
X153233333Y-131207085D01*
X153233333Y-131207085D02*
X153138095Y-131159466D01*
X152966666Y-134059580D02*
X153014285Y-134107200D01*
X153014285Y-134107200D02*
X153157142Y-134154819D01*
X153157142Y-134154819D02*
X153252380Y-134154819D01*
X153252380Y-134154819D02*
X153395237Y-134107200D01*
X153395237Y-134107200D02*
X153490475Y-134011961D01*
X153490475Y-134011961D02*
X153538094Y-133916723D01*
X153538094Y-133916723D02*
X153585713Y-133726247D01*
X153585713Y-133726247D02*
X153585713Y-133583390D01*
X153585713Y-133583390D02*
X153538094Y-133392914D01*
X153538094Y-133392914D02*
X153490475Y-133297676D01*
X153490475Y-133297676D02*
X153395237Y-133202438D01*
X153395237Y-133202438D02*
X153252380Y-133154819D01*
X153252380Y-133154819D02*
X153157142Y-133154819D01*
X153157142Y-133154819D02*
X153014285Y-133202438D01*
X153014285Y-133202438D02*
X152966666Y-133250057D01*
X152585713Y-133250057D02*
X152538094Y-133202438D01*
X152538094Y-133202438D02*
X152442856Y-133154819D01*
X152442856Y-133154819D02*
X152204761Y-133154819D01*
X152204761Y-133154819D02*
X152109523Y-133202438D01*
X152109523Y-133202438D02*
X152061904Y-133250057D01*
X152061904Y-133250057D02*
X152014285Y-133345295D01*
X152014285Y-133345295D02*
X152014285Y-133440533D01*
X152014285Y-133440533D02*
X152061904Y-133583390D01*
X152061904Y-133583390D02*
X152633332Y-134154819D01*
X152633332Y-134154819D02*
X152014285Y-134154819D01*
X151159580Y-131533333D02*
X151207200Y-131485714D01*
X151207200Y-131485714D02*
X151254819Y-131342857D01*
X151254819Y-131342857D02*
X151254819Y-131247619D01*
X151254819Y-131247619D02*
X151207200Y-131104762D01*
X151207200Y-131104762D02*
X151111961Y-131009524D01*
X151111961Y-131009524D02*
X151016723Y-130961905D01*
X151016723Y-130961905D02*
X150826247Y-130914286D01*
X150826247Y-130914286D02*
X150683390Y-130914286D01*
X150683390Y-130914286D02*
X150492914Y-130961905D01*
X150492914Y-130961905D02*
X150397676Y-131009524D01*
X150397676Y-131009524D02*
X150302438Y-131104762D01*
X150302438Y-131104762D02*
X150254819Y-131247619D01*
X150254819Y-131247619D02*
X150254819Y-131342857D01*
X150254819Y-131342857D02*
X150302438Y-131485714D01*
X150302438Y-131485714D02*
X150350057Y-131533333D01*
X151254819Y-132485714D02*
X151254819Y-131914286D01*
X151254819Y-132200000D02*
X150254819Y-132200000D01*
X150254819Y-132200000D02*
X150397676Y-132104762D01*
X150397676Y-132104762D02*
X150492914Y-132009524D01*
X150492914Y-132009524D02*
X150540533Y-131914286D01*
%LPC*%
%LPD*%
M02*
